<svg width="265" height="76" viewBox="0 0 265 76" fill="none" xmlns="http://www.w3.org/2000/svg">
<path d="M82.885 17.193C83.309 18.6417 83.7683 20.2847 84.263 22.122C84.793 23.924 85.3407 25.7967 85.906 27.74C86.5067 29.6833 87.1073 31.6267 87.708 33.57C88.3087 35.5133 88.8917 37.3153 89.457 38.976C89.9163 37.174 90.3757 35.213 90.835 33.093C91.3297 30.973 91.789 28.7823 92.213 26.521C92.637 24.2597 93.0433 22.016 93.432 19.79C93.856 17.5287 94.2447 15.3557 94.598 13.271H103.184C101.947 19.419 100.516 25.6553 98.891 31.98C97.301 38.3047 95.5697 44.3113 93.697 50H86.118C84.8813 46.608 83.68 43.057 82.514 39.347C81.348 35.6017 80.1997 31.8563 79.069 28.111C77.9383 31.8563 76.8077 35.6017 75.677 39.347C74.5463 43.057 73.3627 46.608 72.126 50H64.547C62.6743 44.3113 60.9253 38.3047 59.3 31.98C57.71 25.6553 56.2967 19.419 55.06 13.271H64.017C64.3703 15.3557 64.759 17.5287 65.183 19.79C65.607 22.016 66.0487 24.2597 66.508 26.521C66.9673 28.7823 67.4267 30.973 67.886 33.093C68.3807 35.213 68.8753 37.174 69.37 38.976C70.006 37.2447 70.6243 35.4073 71.225 33.464C71.8257 31.5207 72.4087 29.5773 72.974 27.634C73.5393 25.6907 74.0517 23.818 74.511 22.016C75.0057 20.214 75.4473 18.6063 75.836 17.193H82.885ZM132.283 36.008C132.283 38.1987 131.965 40.2127 131.329 42.05C130.693 43.852 129.774 45.4067 128.573 46.714C127.372 47.986 125.923 48.9753 124.227 49.682C122.566 50.3887 120.694 50.742 118.609 50.742C116.56 50.742 114.687 50.3887 112.991 49.682C111.33 48.9753 109.899 47.986 108.698 46.714C107.497 45.4067 106.56 43.852 105.889 42.05C105.218 40.2127 104.882 38.1987 104.882 36.008C104.882 33.8173 105.218 31.821 105.889 30.019C106.596 28.217 107.55 26.68 108.751 25.408C109.988 24.136 111.436 23.1467 113.097 22.44C114.793 21.7333 116.63 21.38 118.609 21.38C120.623 21.38 122.46 21.7333 124.121 22.44C125.817 23.1467 127.266 24.136 128.467 25.408C129.668 26.68 130.605 28.217 131.276 30.019C131.947 31.821 132.283 33.8173 132.283 36.008ZM124.227 36.008C124.227 33.57 123.732 31.662 122.743 30.284C121.789 28.8707 120.411 28.164 118.609 28.164C116.807 28.164 115.411 28.8707 114.422 30.284C113.433 31.662 112.938 33.57 112.938 36.008C112.938 38.446 113.433 40.3893 114.422 41.838C115.411 43.2513 116.807 43.958 118.609 43.958C120.411 43.958 121.789 43.2513 122.743 41.838C123.732 40.3893 124.227 38.446 124.227 36.008ZM164.476 36.008C164.476 38.1987 164.158 40.2127 163.522 42.05C162.886 43.852 161.968 45.4067 160.766 46.714C159.565 47.986 158.116 48.9753 156.42 49.682C154.76 50.3887 152.887 50.742 150.802 50.742C148.753 50.742 146.88 50.3887 145.184 49.682C143.524 48.9753 142.093 47.986 140.891 46.714C139.69 45.4067 138.754 43.852 138.082 42.05C137.411 40.2127 137.075 38.1987 137.075 36.008C137.075 33.8173 137.411 31.821 138.082 30.019C138.789 28.217 139.743 26.68 140.944 25.408C142.181 24.136 143.63 23.1467 145.29 22.44C146.986 21.7333 148.824 21.38 150.802 21.38C152.816 21.38 154.654 21.7333 156.314 22.44C158.01 23.1467 159.459 24.136 160.66 25.408C161.862 26.68 162.798 28.217 163.469 30.019C164.141 31.821 164.476 33.8173 164.476 36.008ZM156.42 36.008C156.42 33.57 155.926 31.662 154.936 30.284C153.982 28.8707 152.604 28.164 150.802 28.164C149 28.164 147.605 28.8707 146.615 30.284C145.626 31.662 145.131 33.57 145.131 36.008C145.131 38.446 145.626 40.3893 146.615 41.838C147.605 43.2513 149 43.958 150.802 43.958C152.604 43.958 153.982 43.2513 154.936 41.838C155.926 40.3893 156.42 38.446 156.42 36.008ZM189.038 19.631C185.186 19.631 182.395 20.7087 180.664 22.864C178.968 24.984 178.12 27.899 178.12 31.609C178.12 33.411 178.332 35.054 178.756 36.538C179.18 37.9867 179.816 39.241 180.664 40.301C181.512 41.361 182.572 42.1913 183.844 42.792C185.116 43.3573 186.6 43.64 188.296 43.64C189.214 43.64 189.992 43.6223 190.628 43.587C191.299 43.5517 191.882 43.481 192.377 43.375V30.602H200.645V48.781C199.655 49.1697 198.065 49.576 195.875 50C193.684 50.4593 190.981 50.689 187.766 50.689C185.01 50.689 182.501 50.265 180.24 49.417C178.014 48.569 176.106 47.3323 174.516 45.707C172.926 44.0817 171.689 42.0853 170.806 39.718C169.958 37.3507 169.534 34.6477 169.534 31.609C169.534 28.535 170.011 25.8143 170.965 23.447C171.919 21.0797 173.226 19.0833 174.887 17.458C176.547 15.7973 178.491 14.543 180.717 13.695C182.978 12.847 185.381 12.423 187.925 12.423C189.656 12.423 191.211 12.5467 192.589 12.794C194.002 13.006 195.203 13.271 196.193 13.589C197.217 13.8717 198.048 14.172 198.684 14.49C199.355 14.808 199.832 15.0553 200.115 15.232L197.73 21.857C196.599 21.2563 195.292 20.744 193.808 20.32C192.359 19.8607 190.769 19.631 189.038 19.631ZM232.877 42.898V50H208.338V13.271H216.606V42.898H232.877ZM236.347 36.273C236.347 33.7997 236.718 31.6443 237.46 29.807C238.237 27.9343 239.244 26.3797 240.481 25.143C241.718 23.9063 243.131 22.97 244.721 22.334C246.346 21.698 248.007 21.38 249.703 21.38C253.66 21.38 256.787 22.599 259.084 25.037C261.381 27.4397 262.529 30.9907 262.529 35.69C262.529 36.1493 262.511 36.6617 262.476 37.227C262.441 37.757 262.405 38.234 262.37 38.658H244.456C244.633 40.2833 245.392 41.573 246.735 42.527C248.078 43.481 249.88 43.958 252.141 43.958C253.59 43.958 255.003 43.8343 256.381 43.587C257.794 43.3043 258.943 42.9687 259.826 42.58L260.886 48.993C260.462 49.205 259.897 49.417 259.19 49.629C258.483 49.841 257.688 50.0177 256.805 50.159C255.957 50.3357 255.038 50.477 254.049 50.583C253.06 50.689 252.07 50.742 251.081 50.742C248.572 50.742 246.382 50.371 244.509 49.629C242.672 48.887 241.135 47.88 239.898 46.608C238.697 45.3007 237.796 43.7637 237.195 41.997C236.63 40.2303 236.347 38.3223 236.347 36.273ZM254.897 33.252C254.862 32.5807 254.738 31.927 254.526 31.291C254.349 30.655 254.049 30.0897 253.625 29.595C253.236 29.1003 252.724 28.694 252.088 28.376C251.487 28.058 250.728 27.899 249.809 27.899C248.926 27.899 248.166 28.058 247.53 28.376C246.894 28.6587 246.364 29.0473 245.94 29.542C245.516 30.0367 245.18 30.6197 244.933 31.291C244.721 31.927 244.562 32.5807 244.456 33.252H254.897Z" fill="black"/>
<path d="M162.605 72C162.213 70.992 161.793 69.844 161.345 68.556C160.911 67.254 160.512 65.903 160.148 64.503C159.784 65.903 159.385 67.254 158.951 68.556C158.517 69.844 158.104 70.992 157.712 72H156.011C155.367 70.558 154.737 68.913 154.121 67.065C153.505 65.217 152.924 63.222 152.378 61.08H154.478C154.618 61.738 154.786 62.452 154.982 63.222C155.178 63.992 155.381 64.762 155.591 65.532C155.815 66.302 156.046 67.044 156.284 67.758C156.522 68.472 156.746 69.095 156.956 69.627C157.194 68.969 157.425 68.276 157.649 67.548C157.887 66.806 158.111 66.064 158.321 65.322C158.531 64.566 158.727 63.831 158.909 63.117C159.105 62.389 159.273 61.71 159.413 61.08H161.03C161.156 61.71 161.31 62.389 161.492 63.117C161.674 63.831 161.87 64.566 162.08 65.322C162.29 66.064 162.507 66.806 162.731 67.548C162.969 68.276 163.207 68.969 163.445 69.627C163.655 69.095 163.872 68.472 164.096 67.758C164.334 67.044 164.565 66.302 164.789 65.532C165.013 64.762 165.223 63.992 165.419 63.222C165.615 62.452 165.783 61.738 165.923 61.08H167.939C167.393 63.222 166.812 65.217 166.196 67.065C165.58 68.913 164.95 70.558 164.306 72H162.605ZM179.397 66.54C179.397 67.408 179.271 68.192 179.019 68.892C178.767 69.592 178.41 70.194 177.948 70.698C177.5 71.202 176.961 71.594 176.331 71.874C175.701 72.14 175.015 72.273 174.273 72.273C173.531 72.273 172.845 72.14 172.215 71.874C171.585 71.594 171.039 71.202 170.577 70.698C170.129 70.194 169.779 69.592 169.527 68.892C169.275 68.192 169.149 67.408 169.149 66.54C169.149 65.686 169.275 64.909 169.527 64.209C169.779 63.495 170.129 62.886 170.577 62.382C171.039 61.878 171.585 61.493 172.215 61.227C172.845 60.947 173.531 60.807 174.273 60.807C175.015 60.807 175.701 60.947 176.331 61.227C176.961 61.493 177.5 61.878 177.948 62.382C178.41 62.886 178.767 63.495 179.019 64.209C179.271 64.909 179.397 65.686 179.397 66.54ZM177.36 66.54C177.36 65.308 177.08 64.335 176.52 63.621C175.974 62.893 175.225 62.529 174.273 62.529C173.321 62.529 172.565 62.893 172.005 63.621C171.459 64.335 171.186 65.308 171.186 66.54C171.186 67.772 171.459 68.752 172.005 69.48C172.565 70.194 173.321 70.551 174.273 70.551C175.225 70.551 175.974 70.194 176.52 69.48C177.08 68.752 177.36 67.772 177.36 66.54ZM191.784 66.54C191.784 67.408 191.658 68.192 191.406 68.892C191.154 69.592 190.797 70.194 190.335 70.698C189.887 71.202 189.348 71.594 188.718 71.874C188.088 72.14 187.402 72.273 186.66 72.273C185.918 72.273 185.232 72.14 184.602 71.874C183.972 71.594 183.426 71.202 182.964 70.698C182.516 70.194 182.166 69.592 181.914 68.892C181.662 68.192 181.536 67.408 181.536 66.54C181.536 65.686 181.662 64.909 181.914 64.209C182.166 63.495 182.516 62.886 182.964 62.382C183.426 61.878 183.972 61.493 184.602 61.227C185.232 60.947 185.918 60.807 186.66 60.807C187.402 60.807 188.088 60.947 188.718 61.227C189.348 61.493 189.887 61.878 190.335 62.382C190.797 62.886 191.154 63.495 191.406 64.209C191.658 64.909 191.784 65.686 191.784 66.54ZM189.747 66.54C189.747 65.308 189.467 64.335 188.907 63.621C188.361 62.893 187.612 62.529 186.66 62.529C185.708 62.529 184.952 62.893 184.392 63.621C183.846 64.335 183.573 65.308 183.573 66.54C183.573 67.772 183.846 68.752 184.392 69.48C184.952 70.194 185.708 70.551 186.66 70.551C187.612 70.551 188.361 70.194 188.907 69.48C189.467 68.752 189.747 67.772 189.747 66.54ZM202.77 61.08C202.224 63.124 201.58 65.084 200.838 66.96C200.11 68.836 199.403 70.516 198.717 72H196.953C196.267 70.516 195.553 68.836 194.811 66.96C194.083 65.084 193.446 63.124 192.9 61.08H195C195.168 61.766 195.364 62.501 195.588 63.285C195.826 64.055 196.071 64.825 196.323 65.595C196.589 66.351 196.855 67.086 197.121 67.8C197.387 68.514 197.639 69.151 197.877 69.711C198.115 69.151 198.367 68.514 198.633 67.8C198.899 67.086 199.158 66.351 199.41 65.595C199.676 64.825 199.921 64.055 200.145 63.285C200.383 62.501 200.586 61.766 200.754 61.08H202.77ZM203.889 66.561C203.889 65.595 204.029 64.755 204.309 64.041C204.589 63.313 204.96 62.711 205.422 62.235C205.884 61.759 206.416 61.402 207.018 61.164C207.62 60.926 208.236 60.807 208.866 60.807C210.336 60.807 211.463 61.269 212.247 62.193C213.031 63.103 213.423 64.496 213.423 66.372C213.423 66.456 213.423 66.568 213.423 66.708C213.423 66.834 213.416 66.953 213.402 67.065H205.926C206.01 68.199 206.339 69.06 206.913 69.648C207.487 70.236 208.383 70.53 209.601 70.53C210.287 70.53 210.861 70.474 211.323 70.362C211.799 70.236 212.156 70.117 212.394 70.005L212.667 71.643C212.429 71.769 212.009 71.902 211.407 72.042C210.819 72.182 210.147 72.252 209.391 72.252C208.439 72.252 207.613 72.112 206.913 71.832C206.227 71.538 205.66 71.139 205.212 70.635C204.764 70.131 204.428 69.536 204.204 68.85C203.994 68.15 203.889 67.387 203.889 66.561ZM211.386 65.49C211.4 64.608 211.176 63.887 210.714 63.327C210.266 62.753 209.643 62.466 208.845 62.466C208.397 62.466 207.998 62.557 207.648 62.739C207.312 62.907 207.025 63.131 206.787 63.411C206.549 63.691 206.36 64.013 206.22 64.377C206.094 64.741 206.01 65.112 205.968 65.49H211.386ZM220.261 60.849C220.429 60.849 220.618 60.863 220.828 60.891C221.052 60.905 221.269 60.933 221.479 60.975C221.689 61.003 221.878 61.038 222.046 61.08C222.228 61.108 222.361 61.136 222.445 61.164L222.109 62.865C221.955 62.809 221.696 62.746 221.332 62.676C220.982 62.592 220.527 62.55 219.967 62.55C219.603 62.55 219.239 62.592 218.875 62.676C218.525 62.746 218.294 62.795 218.182 62.823V72H216.229V61.542C216.691 61.374 217.265 61.22 217.951 61.08C218.637 60.926 219.407 60.849 220.261 60.849ZM224.329 72V56.04L226.282 55.704V61.29C226.646 61.15 227.031 61.045 227.437 60.975C227.857 60.891 228.27 60.849 228.676 60.849C229.544 60.849 230.265 60.975 230.839 61.227C231.413 61.465 231.868 61.808 232.204 62.256C232.554 62.69 232.799 63.215 232.939 63.831C233.079 64.447 233.149 65.126 233.149 65.868V72H231.196V66.288C231.196 65.616 231.147 65.042 231.049 64.566C230.965 64.09 230.818 63.705 230.608 63.411C230.398 63.117 230.118 62.907 229.768 62.781C229.418 62.641 228.984 62.571 228.466 62.571C228.256 62.571 228.039 62.585 227.815 62.613C227.591 62.641 227.374 62.676 227.164 62.718C226.968 62.746 226.786 62.781 226.618 62.823C226.464 62.865 226.352 62.9 226.282 62.928V72H224.329ZM235.717 66.561C235.717 65.595 235.857 64.755 236.137 64.041C236.417 63.313 236.788 62.711 237.25 62.235C237.712 61.759 238.244 61.402 238.846 61.164C239.448 60.926 240.064 60.807 240.694 60.807C242.164 60.807 243.291 61.269 244.075 62.193C244.859 63.103 245.251 64.496 245.251 66.372C245.251 66.456 245.251 66.568 245.251 66.708C245.251 66.834 245.244 66.953 245.23 67.065H237.754C237.838 68.199 238.167 69.06 238.741 69.648C239.315 70.236 240.211 70.53 241.429 70.53C242.115 70.53 242.689 70.474 243.151 70.362C243.627 70.236 243.984 70.117 244.222 70.005L244.495 71.643C244.257 71.769 243.837 71.902 243.235 72.042C242.647 72.182 241.975 72.252 241.219 72.252C240.267 72.252 239.441 72.112 238.741 71.832C238.055 71.538 237.488 71.139 237.04 70.635C236.592 70.131 236.256 69.536 236.032 68.85C235.822 68.15 235.717 67.387 235.717 66.561ZM243.214 65.49C243.228 64.608 243.004 63.887 242.542 63.327C242.094 62.753 241.471 62.466 240.673 62.466C240.225 62.466 239.826 62.557 239.476 62.739C239.14 62.907 238.853 63.131 238.615 63.411C238.377 63.691 238.188 64.013 238.048 64.377C237.922 64.741 237.838 65.112 237.796 65.49H243.214ZM250.01 72H248.057V61.08H250.01V72ZM249.023 59.106C248.673 59.106 248.372 58.994 248.12 58.77C247.882 58.532 247.763 58.217 247.763 57.825C247.763 57.433 247.882 57.125 248.12 56.901C248.372 56.663 248.673 56.544 249.023 56.544C249.373 56.544 249.667 56.663 249.905 56.901C250.157 57.125 250.283 57.433 250.283 57.825C250.283 58.217 250.157 58.532 249.905 58.77C249.667 58.994 249.373 59.106 249.023 59.106ZM260.424 63.39C260.186 63.194 259.843 63.005 259.395 62.823C258.947 62.641 258.457 62.55 257.925 62.55C257.365 62.55 256.882 62.655 256.476 62.865C256.084 63.061 255.762 63.341 255.51 63.705C255.258 64.055 255.076 64.475 254.964 64.965C254.852 65.455 254.796 65.98 254.796 66.54C254.796 67.814 255.111 68.801 255.741 69.501C256.371 70.187 257.211 70.53 258.261 70.53C258.793 70.53 259.234 70.509 259.584 70.467C259.948 70.411 260.228 70.355 260.424 70.299V63.39ZM260.424 56.04L262.377 55.704V71.685C261.929 71.811 261.355 71.937 260.655 72.063C259.955 72.189 259.15 72.252 258.24 72.252C257.4 72.252 256.644 72.119 255.972 71.853C255.3 71.587 254.726 71.209 254.25 70.719C253.774 70.229 253.403 69.634 253.137 68.934C252.885 68.22 252.759 67.422 252.759 66.54C252.759 65.7 252.864 64.93 253.074 64.23C253.298 63.53 253.62 62.928 254.04 62.424C254.46 61.92 254.971 61.528 255.573 61.248C256.189 60.968 256.889 60.828 257.673 60.828C258.303 60.828 258.856 60.912 259.332 61.08C259.822 61.248 260.186 61.409 260.424 61.563V56.04Z" fill="black"/>
<path d="M47.1025 52.3226L42.9479 56.5018L26.3345 39.795L30.4891 35.6207L47.1025 52.3226Z" fill="url(#paint0_linear_2341_34)"/>
<path opacity="0.2" d="M30.4841 37.7152L45.0177 52.3276L42.9429 54.4122L28.4092 39.7999L30.4841 37.7152ZM30.4841 35.6207L26.3295 39.795L42.9429 56.5018L47.0975 52.3276L30.4841 35.6207Z" fill="#424242"/>
<path d="M20.5674 50.3461C31.6489 50.3461 40.6323 41.3144 40.6323 30.1731C40.6323 19.0318 31.6489 10 20.5674 10C9.48581 10 0.502441 19.0318 0.502441 30.1731C0.502441 41.3144 9.48581 50.3461 20.5674 50.3461Z" fill="url(#paint1_radial_2341_34)"/>
<path d="M51.793 51.944C48.607 48.7384 45.1309 46.4865 42.2154 45.5229C41.4189 45.2574 40.7059 44.7903 40.111 44.1904L39.2359 43.3104L33.9504 48.6204L34.8256 49.5004C35.4205 50.0954 35.8876 50.8132 36.1482 51.6146C37.1119 54.5449 39.3489 58.0358 42.5349 61.2414C46.129 64.8552 50.0869 67.2545 53.1992 67.9724L53.6318 68.4099C54.4136 69.1917 55.6772 69.1917 56.454 68.4099L57.2358 67.6233C57.4177 67.5053 57.5849 67.3725 57.7373 67.225C57.8897 67.0726 58.0224 66.9054 58.1355 66.7235L58.9173 65.9369C59.699 65.1551 59.699 63.8817 58.9173 63.0999L58.4846 62.6624C57.7717 59.5403 55.3871 55.5578 51.793 51.944Z" fill="url(#paint2_radial_2341_34)"/>
<path opacity="0.2" d="M20.5672 11.475C25.5331 11.475 30.199 13.4171 33.7095 16.9472C40.9616 24.2387 40.9616 36.1075 33.7095 43.3989C30.199 46.9291 25.5331 48.8712 20.5672 48.8712C15.6014 48.8712 10.9355 46.9291 7.425 43.3989C0.17292 36.1075 0.17292 24.2387 7.425 16.9472C10.9355 13.4171 15.6063 11.475 20.5672 11.475ZM20.5672 10C15.4342 10 10.2963 11.9716 6.37775 15.9098C-1.45941 23.7863 -1.45941 36.5598 6.37775 44.4412C10.2963 48.3795 15.4293 50.3511 20.5672 50.3511C25.7052 50.3511 30.8382 48.3795 34.7567 44.4412C42.5939 36.5647 42.5939 23.7912 34.7567 15.9098C30.8382 11.9716 25.7052 10 20.5672 10Z" fill="#424242"/>
<path opacity="0.2" d="M39.236 45.3999C39.9784 46.0981 40.8388 46.6242 41.7484 46.9241C44.5608 47.8583 47.8402 50.0659 50.7459 52.9864C54.0106 56.2707 56.3706 60.0123 57.0491 62.9918L57.1425 63.4048L57.4424 63.7047L57.8751 64.1423C58.0816 64.3537 58.0816 64.6929 57.8751 64.8994L57.0933 65.6861L56.9803 65.7992L56.8967 65.9369C56.8328 66.0352 56.7688 66.1188 56.6951 66.1876C56.6213 66.2614 56.5427 66.3253 56.4443 66.3892L56.3116 66.4777L56.1985 66.5908L55.4168 67.3774C55.284 67.5102 55.1316 67.5299 55.0529 67.5299C54.9743 67.5299 54.8169 67.5102 54.6891 67.3774L54.2564 66.9399L53.9565 66.6399L53.5435 66.5465C50.5788 65.8631 46.8618 63.4982 43.5971 60.2139C40.6913 57.2934 38.4936 53.9943 37.5643 51.1672C37.2644 50.2527 36.7383 49.3775 36.0402 48.6351L39.236 45.3999ZM39.2311 43.3104L33.9457 48.6204L34.8208 49.5004C35.4158 50.0954 35.8828 50.8132 36.1434 51.6146C37.1071 54.5449 39.3442 58.0358 42.5302 61.2414C46.1243 64.8552 50.0822 67.2545 53.1944 67.9724L53.6271 68.4099C54.0155 68.8033 54.5268 68.9999 55.0382 68.9999C55.5495 68.9999 56.0608 68.8033 56.4493 68.4099L57.231 67.6233C57.4129 67.5053 57.5801 67.3725 57.7325 67.225C57.8849 67.0726 58.0177 66.9054 58.1308 66.7235L58.9125 65.9369C59.6943 65.1551 59.6943 63.8817 58.9125 63.0999L58.4798 62.6624C57.7669 59.5354 55.3823 55.5578 51.7883 51.944C48.6023 48.7384 45.1262 46.4865 42.2106 45.5229C41.4141 45.2574 40.7012 44.7903 40.1063 44.1904L39.2311 43.3104Z" fill="#424242"/>
<path d="M20.528 46.4669C29.4997 46.4669 36.7726 39.1543 36.7726 30.1338C36.7726 21.1132 29.4997 13.8006 20.528 13.8006C11.5563 13.8006 4.28333 21.1132 4.28333 30.1338C4.28333 39.1543 11.5563 46.4669 20.528 46.4669Z" fill="url(#paint3_radial_2341_34)"/>
<path opacity="0.2" d="M20.528 15.2756C24.4711 15.2756 28.1783 16.8194 30.966 19.6219C36.7284 25.4138 36.7284 34.8439 30.966 40.6358C28.1783 43.4383 24.4711 44.9821 20.528 44.9821C16.5848 44.9821 12.8776 43.4383 10.0899 40.6358C4.32756 34.8439 4.32756 25.4138 10.0899 19.6219C12.8727 16.8194 16.5848 15.2756 20.528 15.2756ZM20.528 13.8006C16.3685 13.8006 12.2139 15.3936 9.04264 18.5845C2.70014 24.9614 2.70014 35.3012 9.04264 41.683C12.2139 44.8739 16.3734 46.4669 20.528 46.4669C24.6825 46.4669 28.842 44.8739 32.0133 41.683C38.3558 35.3061 38.3558 24.9663 32.0133 18.5845C28.842 15.3936 24.6825 13.8006 20.528 13.8006Z" fill="#039BE5"/>
<path d="M41.4042 45.9407L36.4925 50.882C35.9369 51.4425 35.0372 51.4425 34.4816 50.882L34.0096 50.4051C33.454 49.8446 33.454 48.9399 34.0096 48.3843L38.9213 43.4431C39.4769 42.8826 40.3767 42.8826 40.9322 43.4431L41.4042 43.92C41.9598 44.4805 41.9598 45.3852 41.4042 45.9407Z" fill="url(#paint4_radial_2341_34)"/>
<path opacity="0.2" d="M39.9243 44.0086C39.9932 44.0086 40.121 44.0234 40.2341 44.1364L40.7061 44.6134C40.8782 44.7904 40.8782 45.0706 40.7061 45.2476L35.7943 50.1888C35.6812 50.3019 35.5534 50.3167 35.4846 50.3167C35.4157 50.3167 35.2879 50.3019 35.1748 50.1888L34.7028 49.7119C34.5307 49.5349 34.5307 49.2547 34.7028 49.0777L39.6146 44.1364C39.7277 44.0283 39.8604 44.0086 39.9243 44.0086ZM39.9243 43.0253C39.5605 43.0253 39.1967 43.1629 38.9213 43.4432L34.0096 48.3844C33.454 48.9449 33.454 49.8496 34.0096 50.4052L34.4816 50.8821C34.7569 51.1624 35.1207 51.3 35.4846 51.3C35.8484 51.3 36.2122 51.1624 36.4876 50.8821L41.3993 45.9409C41.9549 45.3804 41.9549 44.4757 41.3993 43.9201L40.9273 43.4432C40.652 43.1679 40.2882 43.0253 39.9243 43.0253Z" fill="#424242"/>
<defs>
<linearGradient id="paint0_linear_2341_34" x1="33.4396" y1="42.7825" x2="36.8491" y2="46.192" gradientUnits="userSpaceOnUse">
<stop stop-color="#EEEEEE"/>
<stop offset="1" stop-color="#9E9E9E"/>
</linearGradient>
<radialGradient id="paint1_radial_2341_34" cx="0" cy="0" r="1" gradientUnits="userSpaceOnUse" gradientTransform="translate(19.8489 10.1639) scale(40.3377 40.3216)">
<stop stop-color="#E0E0E0"/>
<stop offset="0.2274" stop-color="#DBDBDB"/>
<stop offset="0.4939" stop-color="#CDCDCD"/>
<stop offset="0.7789" stop-color="#B5B5B5"/>
<stop offset="1" stop-color="#9E9E9E"/>
</radialGradient>
<radialGradient id="paint2_radial_2341_34" cx="0" cy="0" r="1" gradientUnits="userSpaceOnUse" gradientTransform="translate(39.4669 43.6791) scale(25.37 25.37)">
<stop stop-color="#FFA726"/>
<stop offset="0.0404" stop-color="#FFA623"/>
<stop offset="0.5168" stop-color="#FF9800"/>
<stop offset="1" stop-color="#FB8C00"/>
</radialGradient>
<radialGradient id="paint3_radial_2341_34" cx="0" cy="0" r="1" gradientUnits="userSpaceOnUse" gradientTransform="translate(9.85636 19.5875) scale(31.9967 31.9967)">
<stop stop-color="#B3E5FC"/>
<stop offset="0.1696" stop-color="#ADE3FC"/>
<stop offset="0.3927" stop-color="#9DDDFB"/>
<stop offset="0.6456" stop-color="#81D4FA"/>
<stop offset="0.9186" stop-color="#5CC7F8"/>
<stop offset="1" stop-color="#4FC3F7"/>
</radialGradient>
<radialGradient id="paint4_radial_2341_34" cx="0" cy="0" r="1" gradientUnits="userSpaceOnUse" gradientTransform="translate(36.4906 44.7445) scale(6.33815 6.33562)">
<stop stop-color="#E0E0E0"/>
<stop offset="1" stop-color="#9E9E9E"/>
</radialGradient>
</defs>
</svg>
